<svg xmlns="http://www.w3.org/2000/svg" xmlns:xlink="http://www.w3.org/1999/xlink" width="96.113" height="85.289" viewBox="0 0 76.113 65.289">
  <defs>
    <linearGradient id="linear-gradient" x1="0.5" x2="0.5" y2="1" gradientUnits="objectBoundingBox">
      <stop offset="0" stop-color="#acbdcd"/>
      <stop offset="1" stop-color="#f2f2f2"/>
    </linearGradient>
    <linearGradient id="linear-gradient-2" x1="0.5" x2="0.5" y2="1" gradientUnits="objectBoundingBox">
      <stop offset="0" stop-color="#acbdcd"/>
      <stop offset="1" stop-color="#fff"/>
    </linearGradient>
    <linearGradient id="linear-gradient-4" x1="-0.157" y1="0.062" x2="1" y2="1.131" xlink:href="#linear-gradient-2"/>
    <linearGradient id="linear-gradient-7" x1="1.145" y1="0.228" x2="-0.421" y2="0.565" xlink:href="#linear-gradient-2"/>
    <linearGradient id="linear-gradient-9" x1="1.045" y1="0.181" x2="0.046" y2="0.744" xlink:href="#linear-gradient-2"/>
  </defs>
  <g id="Group_14" data-name="Group 14" transform="translate(-372.637 -247.923)">
    <g id="Group_12" data-name="Group 12" transform="translate(-327.976 536.46)">
      <g id="Group_9" data-name="Group 9" transform="translate(700.613 -288.316)">
        <path id="Path_40" data-name="Path 40" d="M922.041,427.535l-5.9-15.5-28.489-19.216" transform="translate(-884.679 -392.822)" fill="url(#linear-gradient)"/>
        <path id="Path_41" data-name="Path 41" d="M887.83,392.374l9.1,19.085,25.35,15.625Z" transform="translate(-884.84 -392.371)" fill="url(#linear-gradient-2)"/>
        <path id="Path_42" data-name="Path 42" d="M943.915,421.362l-7.212,5.77-4.889-11.591Z" transform="translate(-931.812 -402.302)" fill="url(#linear-gradient-2)"/>
        <path id="Path_43" data-name="Path 43" d="M932.615,405.914l3.057-13.176,9.068,19.026" transform="translate(-932.615 -392.667)" fill="url(#linear-gradient-4)"/>
        <path id="Path_38" data-name="Path 38" d="M887.176,431.311l32.579,9.85-25.368-15.616Z" transform="translate(-882.316 -406.479)" fill="url(#linear-gradient-2)"/>
        <path id="Path_39" data-name="Path 39" d="M920.054,446.418l-24.979-.934-7.588-8.893Z" transform="translate(-882.645 -411.782)" fill="url(#linear-gradient-2)"/>
        <path id="Path_34" data-name="Path 34" d="M895.084,493.984l-.031-13.634,7.293,5.992Z" transform="translate(-869.495 -429.245)" fill="url(#linear-gradient-7)"/>
        <path id="Path_33" data-name="Path 33" d="M893.79,475.268l4.318-22.417-11.632,16.471Z" transform="translate(-860.95 -418.175)" fill="url(#linear-gradient-2)"/>
        <path id="Path_37" data-name="Path 37" d="M907.858,481.278l9.8.008.018,13.631Z" transform="translate(-892.058 -430.19)" fill="url(#linear-gradient-9)"/>
        <path id="Path_35" data-name="Path 35" d="M910.12,452.832l-21.335,16.41,2.844-8.074Z" transform="translate(-872.976 -418.114)" fill="url(#linear-gradient-2)"/>
        <path id="Path_36" data-name="Path 36" d="M898.329,469.372l-9.754-.021,21.36-16.406Z" transform="translate(-872.774 -418.245)" fill="url(#linear-gradient-2)"/>
      </g>
      <g id="Group_10" data-name="Group 10" transform="translate(738.558 -288.394)">
        <path id="Path_40-2" data-name="Path 40" d="M887.725,426.973l5.813-15.3L922,392.336" transform="translate(-887.659 -392.336)" fill="none" stroke="#fff" stroke-width="0.3"/>
        <path id="Path_41-2" data-name="Path 41" d="M922.044,392.421h0l-8.891,18.947L887.83,426.994Z" transform="translate(-887.753 -392.313)" fill="none" stroke="#fff" stroke-linecap="round" stroke-width="0.3"/>
        <path id="Path_42-2" data-name="Path 42" d="M931.626,421.485l7.7,5.375.171-.207,4.145-10.941Z" transform="translate(-906.241 -402.35)" fill="none" stroke="#fff" stroke-linecap="round" stroke-width="0.3"/>
        <path id="Path_43-2" data-name="Path 43" d="M951.519,405.766,948.374,393" transform="translate(-914.065 -392.712)" fill="none" stroke="#fff" stroke-linecap="square" stroke-width="0.3"/>
        <path id="Path_38-2" data-name="Path 38" d="M888.329,452.629Z" transform="translate(-888.329 -417.894)" fill="none" stroke="#fff" stroke-width="0.3"/>
        <g id="Path_39-2" data-name="Path 39" transform="translate(-887.232 -411.895)" fill="none" stroke-linecap="round">
          <path d="M887.413,446.533l24.765-.972,7.529-8.67Z" stroke="none"/>
          <path d="M 887.4130859375 446.5328369140625 L 912.1778564453125 445.5607299804688 L 919.70703125 436.890869140625 L 887.4130859375 446.5328369140625 M 887.4248657226563 446.8326110839844 L 887.3272705078125 446.245361328125 L 919.6212158203125 436.6034240722656 L 920.6105346679688 436.3080444335938 L 919.9335327148438 437.0875854492188 L 912.4043579101563 445.7574462890625 L 912.3192749023438 445.8554077148438 L 912.1896362304688 445.8605041503906 L 887.4248657226563 446.8326110839844 Z" stroke="none" fill="#fff"/>
        </g>
        <path id="Path_34-2" data-name="Path 34" d="M902.411,498.479l-7.241-7.554Z" transform="translate(-890.633 -433.691)" fill="none" stroke="#fff" stroke-linecap="round" stroke-width="0.3"/>
        <path id="Path_33-2" data-name="Path 33" d="M891.279,475.225l-4.357-22.332,11.529,16.414Z" transform="translate(-886.741 -418.128)" fill="none" stroke="#fff" stroke-linecap="round" stroke-width="0.3"/>
        <path id="Path_37-2" data-name="Path 37" d="M917.5,481.545h-9.969l.144,13.276Z" transform="translate(-895.866 -430.339)" fill="none" stroke="#fff" stroke-linecap="round" stroke-width="0.3"/>
        <path id="Path_35-2" data-name="Path 35" d="M888.233,453.044l21.3,16.283-3.2-8.174Z" transform="translate(-887.763 -418.203)" fill="none" stroke="#fff" stroke-linecap="round" stroke-linejoin="bevel" stroke-width="0.3"/>
        <path id="Path_36-2" data-name="Path 36" d="M888.575,452.894Z" transform="translate(-888.286 -418.128)" fill="none" stroke="#fff" stroke-linecap="round" stroke-width="0.3"/>
      </g>
      <g id="Path_98" data-name="Path 98" transform="translate(771.177 -289.789)" fill="#fff">
        <path d="M 1.896106839179993 2.511067628860474 L 0.7733846306800842 2.511067628860474 L 0.865924060344696 1.40150773525238 L 1.938582420349121 1.40150773525238 L 1.896106839179993 2.511067628860474 Z" stroke="none"/>
        <path d="M 1.003932952880859 1.551507711410522 L 0.9364141225814819 2.361067771911621 L 1.751739263534546 2.361067771911621 L 1.782730460166931 1.551507711410522 L 1.003932952880859 1.551507711410522 M 0.7279143333435059 1.251507759094238 L 2.094434261322021 1.251507759094238 L 2.040474414825439 2.661067724227905 L 0.6103544235229492 2.661067724227905 L 0.7279143333435059 1.251507759094238 Z" stroke="none" fill="#fff"/>
      </g>
      <g id="Path_100" data-name="Path 100" transform="translate(774.631 -277.124)" fill="#fff">
        <path d="M 1.896106839179993 2.511067628860474 L 0.7733846306800842 2.511067628860474 L 0.865924060344696 1.40150773525238 L 1.938582420349121 1.40150773525238 L 1.896106839179993 2.511067628860474 Z" stroke="none"/>
        <path d="M 1.003932952880859 1.551507711410522 L 0.9364141225814819 2.361067771911621 L 1.751739263534546 2.361067771911621 L 1.782730460166931 1.551507711410522 L 1.003932952880859 1.551507711410522 M 0.7279143333435059 1.251507759094238 L 2.094434261322021 1.251507759094238 L 2.040474414825439 2.661067724227905 L 0.6103544235229492 2.661067724227905 L 0.7279143333435059 1.251507759094238 Z" stroke="none" fill="#fff"/>
      </g>
      <g id="Path_103" data-name="Path 103" transform="translate(769.977 -266.307)" fill="#fff">
        <path d="M 1.188882827758789 2.989916563034058 L 0.9103840589523315 1.855612754821777 L 1.993669867515564 1.700855374336243 L 2.220383882522583 2.735255002975464 L 1.188882827758789 2.989916563034058 Z" stroke="none"/>
        <path d="M 1.876973509788513 1.869047880172729 L 1.095551252365112 1.980681419372559 L 1.298747777938843 2.808284759521484 L 2.042581081390381 2.624643802642822 L 1.876973509788513 1.869047880172729 M 2.110364437103271 1.53266453742981 L 2.398184299468994 2.845864295959473 L 1.079024314880371 3.171544551849365 L 0.725224494934082 1.730544328689575 L 2.110364437103271 1.53266453742981 Z" stroke="none" fill="#fff"/>
      </g>
      <g id="Path_104" data-name="Path 104" transform="translate(762.543 -271.368)" fill="#fff">
        <path d="M 1.896106839179993 2.511067628860474 L 0.7733846306800842 2.511067628860474 L 0.865924060344696 1.40150773525238 L 1.938582420349121 1.40150773525238 L 1.896106839179993 2.511067628860474 Z" stroke="none"/>
        <path d="M 1.003932952880859 1.551507711410522 L 0.9364141225814819 2.361067771911621 L 1.751739263534546 2.361067771911621 L 1.782730460166931 1.551507711410522 L 1.003932952880859 1.551507711410522 M 0.7279143333435059 1.251507759094238 L 2.094434261322021 1.251507759094238 L 2.040474414825439 2.661067724227905 L 0.6103544235229492 2.661067724227905 L 0.7279143333435059 1.251507759094238 Z" stroke="none" fill="#fff"/>
      </g>
      <g id="Path_97" data-name="Path 97" transform="translate(741.82 -233.375)" fill="#fff">
        <path d="M 1.896106839179993 2.511067628860474 L 0.7733846306800842 2.511067628860474 L 0.865924060344696 1.40150773525238 L 1.938582420349121 1.40150773525238 L 1.896106839179993 2.511067628860474 Z" stroke="none"/>
        <path d="M 1.003932952880859 1.551507711410522 L 0.9364141225814819 2.361067771911621 L 1.751739263534546 2.361067771911621 L 1.782730460166931 1.551507711410522 L 1.003932952880859 1.551507711410522 M 0.7279143333435059 1.251507759094238 L 2.094434261322021 1.251507759094238 L 2.040474414825439 2.661067724227905 L 0.6103544235229492 2.661067724227905 L 0.7279143333435059 1.251507759094238 Z" stroke="none" fill="#fff"/>
      </g>
      <g id="Path_105" data-name="Path 105" transform="translate(749.663 -225.382)" fill="#fff">
        <path d="M 1.207654714584351 1.969256997108459 L 0.1869961768388748 1.854946613311768 L 0.3194185197353363 1.006011366844177 L 1.355482578277588 1.136545181274414 L 1.207654714584351 1.969256997108459 Z" stroke="none"/>
        <path d="M 0.4451794624328613 1.173048377037048 L 0.3593461513519287 1.723309993743896 L 1.084553122520447 1.804530739784241 L 1.180217385292053 1.265655755996704 L 0.4451794624328613 1.173048377037048 M 0.1936560869216919 0.8389842510223389 L 1.530746102333069 1.007444262504578 L 1.330756068229675 2.133984327316284 L 0.01464605331420898 1.986584305763245 L 0.1936560869216919 0.8389842510223389 Z" stroke="none" fill="#fff"/>
      </g>
      <g id="Path_101" data-name="Path 101" transform="translate(749.149 -237.6) rotate(-19)" fill="#fff" stroke-dasharray="5">
        <path d="M.118,0H1.484L1.43,1.41H0Z" stroke="none"/>
        <path d="M 0.1175628900527954 -1.430511474609375e-06 L 1.484082818031311 -1.430511474609375e-06 L 1.484082818031311 -1.430511474609375e-06 L 1.472598433494568 0.2999986410140991 L 1.472598314285278 0.2999986410140991 C 1.456753849983215 0.7138933539390564 1.430122852325439 1.409558653831482 1.430122852325439 1.409558653831482 L 1.430122852325439 1.409558653831482 C 1.430122852325439 1.409558653831482 0.7205536961555481 1.409558653831482 0.3010420799255371 1.409558653831482 L 0.3010420799255371 1.409558653831482 L 2.86102294921875e-06 1.409558653831482 L 2.86102294921875e-06 1.409558653831482 C 2.86102294921875e-06 1.409558653831482 2.86102294921875e-06 1.409558653831482 2.86102294921875e-06 1.409558653831482 L 2.86102294921875e-06 1.409558653831482 L 2.86102294921875e-06 1.409558653831482 L 2.86102294921875e-06 1.409558653831482 C 2.86102294921875e-06 1.409558653831482 2.86102294921875e-06 1.409558653831482 2.86102294921875e-06 1.409558653831482 L 0.02502346038818359 1.109558582305908 L 0.02502381801605225 1.109558582305908 C 0.04366004467010498 0.8861111402511597 0.06589281558990479 0.6195386052131653 0.06589281558990479 0.6195386052131653 L 0.3648527860641479 0.6444686055183411 L 0.3260629177093506 1.109558582305908 L 1.141387820243835 1.109558582305908 L 1.172378897666931 0.2999986410140991 L 0.1175628900527954 0.2999986410140991 L 0.1175628900527954 -1.430511474609375e-06 L 0.1175628900527954 -1.430511474609375e-06 Z" stroke="none" fill="#fff"/>
      </g>
      <g id="Path_102" data-name="Path 102" transform="matrix(0.174, 0.985, -0.985, 0.174, 760.538, -237.925)" fill="#fff" stroke-dasharray="5">
        <path d="M0,0,1.278.116,1.046,1.434.057,1.352Z" stroke="none"/>
        <path d="M -4.76837158203125e-06 -1.192092895507813e-07 L 0.3014190793037415 0.02740931510925293 L 0.3014190793037415 0.02740931510925293 C 0.3342750072479248 0.03039705753326416 0.3687992095947266 0.03353643417358398 0.4044573903083801 0.03677892684936523 L 0.4044573903083801 0.03677892684936523 C 0.4419075846672058 0.0401843786239624 0.4805825352668762 0.043701171875 0.5199052095413208 0.04727697372436523 L 0.5199503302574158 0.04728102684020996 C 0.5592730045318604 0.0508568286895752 0.5991984009742737 0.05448734760284424 0.6391452550888062 0.05811989307403564 L 0.6391452550888062 0.05811989307403564 C 0.7190390229225159 0.06538486480712891 0.7989327907562256 0.07264983654022217 0.873833179473877 0.0794607400894165 L 0.873833179473877 0.0794607400894165 C 0.9100764393806458 0.08275651931762695 0.9451366662979126 0.0859447717666626 0.97847580909729 0.08897638320922852 L 0.97847580909729 0.08897626399993896 L 1.278295278549194 0.1162399053573608 C 1.278295278549194 0.1162399053573608 1.278295278549194 0.1162399053573608 1.278295278549194 0.1162399053573608 C 1.278295278549194 0.1162399053573608 1.278295278549194 0.1162399053573608 1.278295278549194 0.1162399053573608 L 1.278295278549194 0.1162399053573608 L 1.278295278549194 0.1162399053573608 L 1.278295278549194 0.1162399053573608 C 1.278295278549194 0.1162399053573608 1.278295278549194 0.1162399053573608 1.278295278549194 0.1162399053573608 L 1.278295278549194 0.1162399053573608 L 1.278295278549194 0.1162399053573608 L 1.22601580619812 0.4127265214920044 L 1.226015686988831 0.4127265214920044 C 1.21004331111908 0.5033084750175476 1.191730499267578 0.6071650385856628 1.173039674758911 0.7131640911102295 L 1.17301344871521 0.7133123874664307 C 1.111558675765991 1.061834573745728 1.046005249023438 1.433599829673767 1.046005249023438 1.433599829673767 L 1.046005249023438 1.433599829673767 C 1.046005249023438 1.433599829673767 0.05712521076202393 1.351809859275818 0.05712521076202393 1.351809859275818 L 0.05712521076202393 1.351809859275818 L 0.05712521076202393 1.351809859275818 L 0.05712521076202393 1.351809859275818 L 0.05712521076202393 1.351809859275818 L 0.05712521076202393 1.351809859275818 L 0.05712521076202393 1.351809859275818 L 0.05712521076202393 1.351809859275818 L 0.05712521076202393 1.351809859275818 L 0.05712521076202393 1.351809859275818 L 0.05712521076202393 1.351809859275818 C 0.05712521076202393 1.351809859275818 0.02961575984954834 0.700877845287323 0.01277554035186768 0.3024026155471802 L 0.01277530193328857 0.3024026155471802 L -4.76837158203125e-06 -1.192092895507813e-07 Z M 0.9261963367462158 0.3854629993438721 L 0.3141992092132568 0.3298120498657227 L 0.3456774353981018 1.074650526046753 L 0.7980741262435913 1.112068176269531 L 0.9261963367462158 0.3854629993438721 Z" stroke="none" fill="#fff"/>
      </g>
    </g>
  </g>
</svg>
