<svg xmlns="http://www.w3.org/2000/svg" width="139.046" height="179.776" viewBox="0 0 139.046 179.776">
  <path id="Exclusion_1" data-name="Exclusion 1" d="M347.857,963.761a2.974,2.974,0,0,1-2.508-1,4.027,4.027,0,0,1-.419-3.068c.1-.208,9.975-20.782,11.029-21.556a2.587,2.587,0,0,1,1.721-.552,5.063,5.063,0,0,1,1.563.268,42.849,42.849,0,0,0,6.211,5.8c3.463,2.644,8.787,5.8,14.487,5.8.464,0,.93-.021,1.386-.062,9.37-.847,8.83-11.821,8.472-19.082-.07-1.427-.131-2.66-.114-3.685l-6.2,1.114-5.947-43.745L369.4,843.848l66.493-11.1,2.152,40.148,10.493,43.14L432.033,919a78.865,78.865,0,0,1,9.127,8.236c2.911,3.224,5.291,8.587,6.776,12.518,1.611,4.267,2.541,7.8,2.55,7.837a78.685,78.685,0,0,1,4.755-6.361c2.777-3.321,6.685-5.9,9.957-6.56a5.745,5.745,0,0,1,1.136-.123,2.592,2.592,0,0,1,2.318,1.042,2.725,2.725,0,0,1,.145,2.539c-.353.852-.888,1.154-2.06,1.816a39.4,39.4,0,0,0-3.55,2.22c-4.051,2.835-8.964,10.555-10.372,12.853-.294.377-.522.732-.723,1.046a2.866,2.866,0,0,1-2.948,1.728c-.2,0-.419-.008-.651-.025-2.193-1.223-2.676-3.65-3.638-8.486v-.017c-.132-.661-.268-1.345-.42-2.086-1.368-6.506-5.536-12.959-8.98-16.829-2.511-2.82-8.6-7.353-12.006-9.8L396.1,925.462a112.739,112.739,0,0,1,.008,15.49,15.955,15.955,0,0,1-3.032,7.659,20.919,20.919,0,0,1-5.283,5.1c-3.179,2.085-10.454,2.109-10.527,2.109a18.651,18.651,0,0,1-5.67-1.132c-4.58-1.478-12.5-8.571-12.577-8.643a.537.537,0,0,1-.025.057c-.5,1.084-2.266,4.913-4.235,8.687-2.089,4-4.855,8.8-6.172,8.932a7.15,7.15,0,0,1-.73.04ZM400.5,870.638h-.015c-.545.086-1.372.235-2.458.443-1.128.215-1.933.36-2.459.443a.833.833,0,0,0-.549.23.211.211,0,0,0-.032.169l.055.252c.334,1.6.576,2.832.72,3.671.611,3.2,1,5.323,1.179,6.48.171,1.076.379,2.732.619,4.921s.447,3.839.618,4.92a.628.628,0,0,0,.121.326.272.272,0,0,0,.2.056,1.208,1.208,0,0,0,.184-.017l4.993-.791a.4.4,0,0,0,.273-.149.585.585,0,0,0,.062-.44c-.156-.986-.415-2.461-.77-4.384s-.613-3.385-.771-4.383a.713.713,0,0,1,.036-.45.46.46,0,0,1,.16.143c.623.909,1.588,2.411,2.868,4.465,1.206,1.949,2.175,3.446,2.881,4.448a.645.645,0,0,0,.549.19,2.778,2.778,0,0,0,.425-.038,5.734,5.734,0,0,0,.6-.11.641.641,0,0,0,.311-.463c.44-1.887.881-3.787,1.312-5.648a43.377,43.377,0,0,1,1.272-4.937c.092,0,.162.154.208.442.158,1,.362,2.529.6,4.548s.448,3.552.606,4.548c.048.307.19.462.421.462a.617.617,0,0,0,.1-.008l5.292-.838a.437.437,0,0,0,.3-.159.492.492,0,0,0,.059-.374c-.168-1.064-.473-2.7-.906-4.852-.44-2.191-.738-3.783-.909-4.868-.185-1.168-.423-2.947-.707-5.289s-.522-4.122-.707-5.29a.33.33,0,0,0-.368-.3.886.886,0,0,0-.138.012c-.254.04-.635.126-1.131.256s-.884.217-1.132.256c-.3.047-.75.1-1.33.164-.6.064-1.029.118-1.315.163-.2.031-.353.257-.461.67-1.289,4.471-2.289,7.893-2.972,10.172-.239.8-.416,1.215-.525,1.232h-.034c-.208,0-.51-.286-.9-.851l-5.883-8.891C400.8,870.825,400.613,870.638,400.5,870.638Zm-41.449,61.31-2.912-43.217-13.423-37.59,13.215,2.516,9.336-8.013,8.03,37.88,6.18,44.707-20.423,3.717Zm-5.1-82.859a9.425,9.425,0,0,1-.982-.053c-1.142-.114-2.14-1.727-7.122-11.5C340.991,827.994,329.78,800.2,330,795.349a4.942,4.942,0,0,1,1.882-3.8,6.872,6.872,0,0,1,4.284-1.309,11.661,11.661,0,0,1,4.957,1.189c2.737,1.3,7.6,7.4,11.2,12.281,3.9,5.288,7.2,10.337,7.231,10.388,0,.063.309,6.255-1.824,9.239a65.121,65.121,0,0,1-7.5,9.266c-.012.016-1.157,1.572-.893,2.627a1.1,1.1,0,0,0,.642.744.871.871,0,0,0,.373.075c1.973,0,6.821-4.883,6.87-4.932l.284,7.655c-.033.024-3.311,2.4-3.526,4a1.465,1.465,0,0,0,.2,1.162.847.847,0,0,0,.669.256,7.535,7.535,0,0,0,3-1.3V847.3c0,.024-.787,1.788-3.891,1.788Zm-8.493-22.3h0a.616.616,0,0,0,.384.115c1.255,0,4.048-2.446,6.642-5.816,2.968-3.855,4.643-7.562,3.734-8.263a.613.613,0,0,0-.384-.116c-1.252,0-4.046,2.455-6.644,5.838-2.513,3.273-4.146,6.478-3.972,7.794a.686.686,0,0,0,.238.478v-.031Zm4.226-22.333c-1.249,0-4.048,2.458-6.654,5.845-2.9,3.773-4.613,7.561-3.734,8.272a.616.616,0,0,0,.373.109c1.257,0,4.059-2.455,6.663-5.839,2.969-3.86,4.644-7.571,3.733-8.272a.611.611,0,0,0-.379-.116Zm12.427,39.384h0l-.007-.035c-.332-1.664-2-10.087-2.262-12.533-.161-1.515,1.325-7.109,2.762-12.519,1.1-4.135,2.136-8.04,2.346-9.791.479-3.989-1.339-12.645-1.357-12.731l8.229-1.2c.005.063.6,7.193,1.131,10.026.42,2.279,3.754,8.141,6.433,12.852,1.14,2,2.217,3.9,2.928,5.264a42.111,42.111,0,0,1,3.15,7.505l-16.8,1.037.6,6.742c-.007.013-.192.314-2.835,1.642a13.164,13.164,0,0,0-4.315,3.743Zm26.469-8.3h0l-.726-11.84c.536,1.521,3.279,2.429,7.339,2.429.746,0,1.522-.032,2.307-.094a20.946,20.946,0,0,0,7.942-4.823l.971,11.945-17.832,2.385Zm21.461-2.8h0l-1.391-29.679,9.931,2.54-4.939,25.628-3.6,1.512Zm7.718-1.858h0l5.142-24.355,14.962,2.7-4.062,19.508-16.042,2.149Zm-21.945-8.813c-2.572,0-5.141-1.477-7.232-4.158a21.141,21.141,0,0,1-4.013-10.341,20.791,20.791,0,0,1,1.618-11.45c1.554-3.2,3.9-5.136,6.61-5.465a6.741,6.741,0,0,1,.81-.049c2.573,0,5.141,1.478,7.232,4.162a21.156,21.156,0,0,1,4.007,10.332c.656,5.345-.48,10.487-3.038,13.753a7.821,7.821,0,0,1-5.19,3.169,6.756,6.756,0,0,1-.8.055Zm-.641-7.264a2.239,2.239,0,0,0-.032,4.477h.034a2.239,2.239,0,0,0,0-4.478ZM390.1,810.56a2.239,2.239,0,1,0,2.239,2.239,2.239,2.239,0,0,0-2.239-2.239Zm9.836-.31a2.239,2.239,0,1,0,2.239,2.239A2.239,2.239,0,0,0,399.936,810.25Zm-4.7-6.145a2.956,2.956,0,1,0,.008,0Zm5.134-4.789a2.239,2.239,0,1,0,0,4.478h.04a2.239,2.239,0,1,0-.039-4.477Zm-10.8-.095a2.239,2.239,0,1,0,2.239,2.239,2.239,2.239,0,0,0-2.239-2.239Zm5.513-5.074a2.239,2.239,0,1,0,2.239,2.239,2.239,2.239,0,0,0-2.239-2.239Zm42.266,10.3h0l-14.087-2.108-3.31-8.98,13.484,2.109,3.914,8.979Zm-19.18-3.495h0l-7.673-1.327,4.823-5.7,2.851,7.026Zm-54.686-8.191h0l-1.642-7.564,8.98-1.2.061,8-7.4.764Zm69.639-1.634h0l-13.768-2.721-.165-4.192,14.375,3.457-.441,3.456Z" transform="translate(-329.997 -783.997)" fill="#f28500"/>
</svg>
